<?xml version="1.0" encoding="utf-8"?>
<!-- Generator: Adobe Illustrator 22.0.0, SVG Export Plug-In . SVG Version: 6.00 Build 0)  -->
<svg version="1.1" id="Layer_1" xmlns="http://www.w3.org/2000/svg" xmlns:xlink="http://www.w3.org/1999/xlink" x="0px" y="0px"
	 viewBox="0 0 1200 1200" enable-background="new 0 0 1200 1200" xml:space="preserve">
<g>
	<path fill="#493B44" d="M1077.923,569.843V453.479c0-14.689-11.908-26.597-26.597-26.597h-26.774H919.824H776.862H672.135H529.174
		H424.446h-9.704l11.059-3.969l98.572-35.375l134.559-48.29l98.572-35.375l134.558-48.29l98.572-35.375l25.201-9.044
		c13.826-4.962,21.012-20.192,16.05-34.018L992.579,67.62c-4.962-13.826-20.192-21.012-34.018-16.05L892.7,75.207l-98.572,35.375
		l-134.558,48.29l-98.572,35.375l-134.559,48.29l-98.572,35.375L182.502,330.08c-9.276,3.329-15.54,11.286-17.175,20.334h-14.16
		c-16.066,0-29.091,13.024-29.091,29.091V567.35c0,13.722,9.512,25.195,22.294,28.26c-12.782,3.065-22.294,14.538-22.294,28.26
		v497.04c0,16.067,13.025,29.091,29.091,29.091h896.002c16.067,0,29.091-13.024,29.091-29.091V618.328
		c0-11.069-7.647-20.328-17.938-22.849C1069.611,592.404,1077.923,582.107,1077.923,569.843z"/>
	<path fill="#C1ACBF" d="M339.012,350.414H165.328h-14.16c-16.066,0-29.091,13.024-29.091,29.091V567.35
		c0,13.722,9.512,25.195,22.294,28.26c2.184,0.524,4.452,0.831,6.797,0.831h75.637h112.208c3.376,0,6.604-0.604,9.619-1.662
		c11.332-3.975,19.472-14.738,19.472-27.429v-123.73v-16.738v-47.377C368.103,363.438,355.079,350.414,339.012,350.414z
		 M199.545,523.852c0,9.427-7.642,17.069-17.069,17.069s-17.069-7.642-17.069-17.069s7.642-17.069,17.069-17.069
		S199.545,514.424,199.545,523.852z M182.475,405.186c9.427,0,17.069,7.642,17.069,17.069c0,5.754-2.867,10.817-7.229,13.91
		c-2.785,1.974-6.167,3.16-9.84,3.16c-9.427,0-17.069-7.642-17.069-17.069c0-9.005,6.996-16.303,15.836-16.945
		C181.657,405.28,182.053,405.186,182.475,405.186z M290.636,523.852c0-9.427,7.642-17.069,17.069-17.069
		c9.427,0,17.069,7.642,17.069,17.069s-7.642,17.069-17.069,17.069C298.278,540.921,290.636,533.279,290.636,523.852z
		 M307.705,439.325c-7.813,0-14.328-5.28-16.355-12.444c-0.419-1.48-0.715-3.011-0.715-4.626c0-9.427,7.642-17.069,17.069-17.069
		c9.427,0,17.069,7.642,17.069,17.069c0,1.614-0.296,3.146-0.715,4.626C322.033,434.046,315.518,439.325,307.705,439.325z"/>
	<g>
		<polygon fill="#EFE8EF" points="486.397,594.778 485.974,596.44 628.935,596.44 629.359,594.778 672.135,426.882 529.174,426.882 
					"/>
		<polygon fill="#EFE8EF" points="734.086,594.778 733.663,596.44 876.624,596.44 877.047,594.778 919.824,426.882 776.862,426.882 
					"/>
		<path fill="#EFE8EF" d="M1051.326,426.882h-26.774l-42.776,167.896l-0.424,1.662h69.974c2.426,0,4.764-0.353,6.997-0.961
			c11.289-3.076,19.6-13.373,19.6-25.636V453.479C1077.923,438.79,1066.015,426.882,1051.326,426.882z"/>
		<path fill="#EFE8EF" d="M937.845,998.481H258.194c-8.79,0-15.915,7.126-15.915,15.915v25.844c0,8.79,7.126,15.915,15.915,15.915
			h679.651c8.79,0,15.915-7.125,15.915-15.915v-25.844C953.761,1005.606,946.635,998.481,937.845,998.481z"/>
		<path fill="#EFE8EF" d="M368.103,379.505v47.377v16.738v123.73c0,12.69-8.14,23.453-19.472,27.429
			c-3.015,1.058-6.243,1.662-9.619,1.662h42.234l0.423-1.662l42.776-167.896h-9.704l11.059-3.969l-97.935-145L182.502,330.08
			c-9.276,3.329-15.54,11.286-17.175,20.334h173.685C355.079,350.414,368.103,363.438,368.103,379.505z"/>
		<polygon fill="#EFE8EF" points="658.932,339.248 560.997,194.247 426.439,242.537 524.373,387.538 		"/>
		<polygon fill="#EFE8EF" points="892.063,255.582 794.128,110.582 659.569,158.872 757.504,303.872 		"/>
		<path fill="#EFE8EF" d="M1015.835,211.163c13.826-4.962,21.012-20.192,16.05-34.018L992.579,67.62
			c-4.962-13.826-20.192-21.012-34.018-16.05L892.7,75.207l97.935,145.001L1015.835,211.163z"/>
		<path fill="#EFE8EF" d="M937.845,783.485H765.971v-58.401c0-11.984-9.715-21.699-21.699-21.699h-9.974
			c-11.984,0-21.699,9.715-21.699,21.699v58.401H483.441v-59.51c0-11.984-9.715-21.699-21.699-21.699h-9.974
			c-11.984,0-21.699,9.715-21.699,21.699v59.51H258.194c-8.79,0-15.915,7.125-15.915,15.915v25.844
			c0,8.79,7.126,15.915,15.915,15.915h679.651c8.79,0,15.915-7.126,15.915-15.915V799.4
			C953.761,790.61,946.635,783.485,937.845,783.485z"/>
	</g>
</g>
</svg>
